0
SECTION
2
HEADER
9
$ACADVER
1
AC1015
9
$INSUNITS
70
4
0
ENDSEC
0
SECTION
2
TABLES
0
TABLE
2
LAYER
70
1
0
LAYER
2
0
70
0
62
7
6
CONTINUOUS
0
ENDTAB
0
ENDSEC
0
SECTION
2
ENTITIES
0
LWPOLYLINE
5
1
8
0
90
31
70
1
10
14.0
20
0.0
42
0.0
10
14.0
20
4.0
42
0.0
10
12.5
20
5.5
42
0.0
10
11.0
20
7.5
42
0.0
10
10.0
20
10.0
42
0.0
10
9.0
20
13.0
42
0.0
10
8.0
20
17.0
42
0.0
10
7.2
20
21.0
42
0.0
10
7.0
20
24.0
42
0.0
10
7.5
20
26.5
42
0.0
10
8.0
20
27.5
42
0.0
10
7.0
20
29.0
42
0.0
10
5.0
20
32.0
42
0.0
10
3.8
20
34.5
42
0.0
10
3.5
20
36.1
42
0.7292
10
0.0
20
47.0
42
0.7292
10
-3.5
20
36.1
42
0.0
10
-3.8
20
34.5
42
0.0
10
-5.0
20
32.0
42
0.0
10
-7.0
20
29.0
42
0.0
10
-8.0
20
27.5
42
0.0
10
-7.5
20
26.5
42
0.0
10
-7.0
20
24.0
42
0.0
10
-7.2
20
21.0
42
0.0
10
-8.0
20
17.0
42
0.0
10
-9.0
20
13.0
42
0.0
10
-10.0
20
10.0
42
0.0
10
-11.0
20
7.5
42
0.0
10
-12.5
20
5.5
42
0.0
10
-14.0
20
4.0
42
0.0
10
-14.0
20
0.0
42
0.0
0
ENDSEC
0
EOF
